<svg width="35" height="35" viewBox="0 0 35 35" fill="none" xmlns="http://www.w3.org/2000/svg">
<rect width="35" height="35" rx="17.5" fill="#1D1D1D"/>
<path d="M23.1643 26.2377C22.0658 27.2403 20.8665 27.082 19.712 26.6071C18.4903 26.1216 17.3695 26.1005 16.0805 26.6071C14.4665 27.2615 13.6146 27.0715 12.6507 26.2377C7.18095 20.9289 7.98796 12.8444 14.1975 12.5489C15.7106 12.6227 16.7642 13.3299 17.6497 13.3932C18.9723 13.1399 20.2388 12.4117 21.6511 12.5067C23.3436 12.6333 24.6214 13.2666 25.462 14.4064C21.9649 16.3801 22.7944 20.7178 26 21.9316C25.3611 23.5147 24.5317 25.0873 23.153 26.2483L23.1643 26.2377ZM17.5376 12.4855C17.3695 10.132 19.3982 8.18998 21.7296 8C22.0546 10.723 19.1068 12.7494 17.5376 12.4855Z" fill="white"/>
</svg>
