<svg width="30" height="30" viewBox="0 0 30 30" fill="none" xmlns="http://www.w3.org/2000/svg">
<path d="M7.74375 1.48691C9.0218 0.517259 10.5833 -0.00520104 12.1875 3.90354e-05C12.6375 3.90354e-05 12.9956 0.234414 13.2037 0.395663C13.4362 0.579413 13.6537 0.813788 13.8487 1.04816C13.987 1.2161 14.0626 1.42688 14.0625 1.64441V8.43753H12.0281C11.807 7.81202 11.3718 7.28482 10.7996 6.94913C10.2273 6.61343 9.55478 6.49084 8.90088 6.60303C8.24697 6.71523 7.65379 7.05497 7.22615 7.56222C6.79852 8.06948 6.56397 8.71157 6.56397 9.37503C6.56397 10.0385 6.79852 10.6806 7.22615 11.1878C7.65379 11.6951 8.24697 12.0348 8.90088 12.147C9.55478 12.2592 10.2273 12.1366 10.7996 11.8009C11.3718 11.4652 11.807 10.938 12.0281 10.3125H14.0625V27.9656C14.0626 28.1044 14.0319 28.2415 13.9725 28.367C13.9132 28.4925 13.8267 28.6032 13.7194 28.6913C12.8531 29.4 11.6944 30 10.3125 30C8.08875 30 6.43313 28.8788 5.3625 27.5381C4.59349 26.5828 4.06667 25.4558 3.82687 24.2531C3.09887 24.0577 2.42369 23.7022 1.85063 23.2125C0.815625 22.3256 0 20.8875 0 18.75C0 17.7056 0.0693748 16.7625 0.225 15.9375H6.09375C7.28625 15.9375 8.26875 16.8281 8.41875 17.9794C7.79521 18.205 7.27146 18.6438 6.93997 19.2181C6.60848 19.7924 6.49058 20.4654 6.60708 21.1182C6.72359 21.771 7.067 22.3616 7.57668 22.7858C8.08637 23.21 8.72954 23.4404 9.39264 23.4365C10.0557 23.4325 10.6961 23.1944 11.2007 22.7641C11.7053 22.3339 12.0416 21.7392 12.1503 21.085C12.259 20.4309 12.1331 19.7594 11.7947 19.1891C11.4564 18.6188 10.9274 18.1863 10.3012 17.9681C10.2222 16.9063 9.74462 15.9137 8.96426 15.1893C8.1839 14.4649 7.15849 14.0624 6.09375 14.0625H0.826875C1.11375 13.5038 1.49812 13.0313 1.99875 12.6956C2.12665 12.6139 2.25939 12.54 2.39625 12.4744C1.86375 10.9144 2.0025 9.08815 2.51625 7.65378C2.84437 6.73128 3.36563 5.85941 4.08187 5.27816C4.55438 4.89378 5.11688 4.64066 5.73188 4.59191C6.00188 3.31128 6.75938 2.25191 7.74375 1.48691ZM15.9375 23.4375H17.3438C18.4626 23.4375 19.5357 22.993 20.3269 22.2019C21.118 21.4107 21.5625 20.3376 21.5625 19.2188V15.7781C22.188 15.557 22.7152 15.1218 23.0509 14.5496C23.3866 13.9773 23.5092 13.3048 23.397 12.6509C23.2848 11.997 22.9451 11.4038 22.4378 10.9762C21.9306 10.5485 21.2885 10.314 20.625 10.314C19.9615 10.314 19.3194 10.5485 18.8122 10.9762C18.3049 11.4038 17.9652 11.997 17.853 12.6509C17.7408 13.3048 17.8634 13.9773 18.1991 14.5496C18.5348 15.1218 19.062 15.557 19.6875 15.7781V19.2188C19.6875 20.5125 18.6375 21.5625 17.3438 21.5625H15.9375V1.64441C15.9374 1.42688 16.013 1.2161 16.1513 1.04816C16.3444 0.813788 16.5638 0.579413 16.7962 0.395663C17.0025 0.234414 17.3606 3.90354e-05 17.8125 3.90354e-05C19.4167 -0.00520104 20.9782 0.517259 22.2563 1.48691C23.2406 2.25191 24 3.31128 24.2681 4.59191C24.8831 4.63878 25.4456 4.89378 25.9181 5.27816C26.6344 5.85941 27.1556 6.73128 27.4838 7.65378C27.9975 9.08815 28.1362 10.9163 27.6038 12.4725C27.7388 12.5363 27.8713 12.6113 28.0012 12.6975C28.5169 13.0406 28.9088 13.5319 29.1975 14.1113C29.7656 15.2456 30 16.8281 30 18.75C30 20.8894 29.1844 22.3256 28.1494 23.2125C27.5763 23.7022 26.9011 24.0577 26.1731 24.2531C25.9856 25.2994 25.4606 26.5106 24.6375 27.5381C23.5688 28.8788 21.9112 30 19.6875 30C18.3075 30 17.1469 29.4 16.2825 28.6913C16.1748 28.6034 16.088 28.4928 16.0283 28.3673C15.9687 28.2418 15.9376 28.1046 15.9375 27.9656V23.4375ZM9.375 8.43753C9.12636 8.43753 8.8879 8.5363 8.71209 8.71212C8.53627 8.88793 8.4375 9.12639 8.4375 9.37503C8.4375 9.62367 8.53627 9.86212 8.71209 10.0379C8.8879 10.2138 9.12636 10.3125 9.375 10.3125C9.62364 10.3125 9.8621 10.2138 10.0379 10.0379C10.2137 9.86212 10.3125 9.62367 10.3125 9.37503C10.3125 9.12639 10.2137 8.88793 10.0379 8.71212C9.8621 8.5363 9.62364 8.43753 9.375 8.43753ZM9.375 19.6875C9.12636 19.6875 8.8879 19.7863 8.71209 19.9621C8.53627 20.1379 8.4375 20.3764 8.4375 20.625C8.4375 20.8737 8.53627 21.1121 8.71209 21.2879C8.8879 21.4637 9.12636 21.5625 9.375 21.5625C9.62364 21.5625 9.8621 21.4637 10.0379 21.2879C10.2137 21.1121 10.3125 20.8737 10.3125 20.625C10.3125 20.3764 10.2137 20.1379 10.0379 19.9621C9.8621 19.7863 9.62364 19.6875 9.375 19.6875ZM20.625 14.0625C20.8736 14.0625 21.1121 13.9637 21.2879 13.7879C21.4637 13.6121 21.5625 13.3737 21.5625 13.125C21.5625 12.8764 21.4637 12.6379 21.2879 12.4621C21.1121 12.2863 20.8736 12.1875 20.625 12.1875C20.3764 12.1875 20.1379 12.2863 19.9621 12.4621C19.7863 12.6379 19.6875 12.8764 19.6875 13.125C19.6875 13.3737 19.7863 13.6121 19.9621 13.7879C20.1379 13.9637 20.3764 14.0625 20.625 14.0625Z" fill="#383838"/>
</svg>
