<svg width="24" height="24" viewBox="0 0 35 36" fill="none" xmlns="http://www.w3.org/2000/svg">
<g clip-path="url(#clip0_172_2376)">
<path d="M12.1926 1.65117C8.69557 2.86433 5.67973 5.16694 3.58806 8.22079C1.49639 11.2746 0.439155 14.9188 0.571638 18.6179C0.704121 22.317 2.01934 25.8761 4.32412 28.7725C6.62889 31.6689 9.80173 33.7499 13.3766 34.7098C16.2748 35.4576 19.3113 35.4905 22.225 34.8055C24.8646 34.2126 27.3049 32.9444 29.3071 31.125C31.3909 29.1736 32.9034 26.6912 33.6821 23.9445C34.5284 20.9577 34.679 17.8166 34.1223 14.7625H17.8473V21.5137H27.2727C27.0843 22.5904 26.6806 23.6181 26.0858 24.5352C25.491 25.4524 24.7173 26.2401 23.811 26.8512C22.66 27.6125 21.3626 28.1248 20.002 28.3551C18.6374 28.6088 17.2377 28.6088 15.8731 28.3551C14.49 28.0691 13.1816 27.4983 12.0313 26.6789C10.1833 25.3708 8.79564 23.5123 8.06644 21.3688C7.32492 19.1851 7.32492 16.8177 8.06644 14.634C8.5855 13.1033 9.44357 11.7097 10.5766 10.557C11.8732 9.21376 13.5148 8.25359 15.3212 7.78185C17.1276 7.31012 19.029 7.34505 20.8168 7.88282C22.2135 8.31154 23.4906 9.06061 24.5465 10.0703C25.6093 9.01302 26.6702 7.953 27.7293 6.89024C28.2762 6.31875 28.8723 5.77461 29.411 5.18946C27.7992 3.68959 25.9074 2.5225 23.8438 1.75508C20.0859 0.3906 15.9742 0.353931 12.1926 1.65117Z" fill="white"/>
<path d="M12.1928 1.65116C15.974 0.353035 20.0858 0.388739 23.8439 1.75233C25.9079 2.52497 27.7989 3.69767 29.4084 5.20311C28.8615 5.78827 28.2846 6.33514 27.7268 6.90389C26.6658 7.96301 25.6058 9.01848 24.5467 10.0703C23.4908 9.0606 22.2136 8.31153 20.817 7.8828C19.0297 7.34315 17.1284 7.3062 15.3215 7.776C13.5146 8.24581 11.8721 9.20422 10.574 10.5461C9.44099 11.6987 8.58292 13.0924 8.06387 14.623L2.39551 10.2344C4.42444 6.2109 7.9374 3.13326 12.1928 1.65116Z" fill="#E33629"/>
<path d="M0.891789 14.582C1.19646 13.0721 1.70227 11.6098 2.3957 10.2344L8.06405 14.634C7.32253 16.8177 7.32253 19.1851 8.06405 21.3688C6.17551 22.8271 4.28606 24.2927 2.3957 25.7656C0.659779 22.3102 0.130355 18.3732 0.891789 14.582Z" fill="#F8BD00"/>
<path d="M17.8469 14.7598H34.1219C34.6786 17.8139 34.528 20.955 33.6817 23.9418C32.903 26.6884 31.3905 29.1709 29.3067 31.1223C27.4774 29.6949 25.6399 28.2785 23.8106 26.8512C24.7175 26.2394 25.4916 25.4509 26.0864 24.5328C26.6813 23.6147 27.0846 22.5859 27.2723 21.5082H17.8469C17.8442 19.2605 17.8469 17.0102 17.8469 14.7598Z" fill="#587DBD"/>
<path d="M2.39258 25.7656C4.28294 24.3073 6.1724 22.8417 8.06094 21.3687C8.79158 23.513 10.1812 25.3716 12.0312 26.6789C13.1852 27.4945 14.4964 28.0607 15.8813 28.3414C17.2459 28.5951 18.6455 28.5951 20.0102 28.3414C21.3708 28.1111 22.6682 27.5988 23.8191 26.8375C25.6484 28.2648 27.4859 29.6812 29.3152 31.1086C27.3134 32.9289 24.873 34.1981 22.2332 34.7918C19.3195 35.4768 16.283 35.4439 13.3848 34.6961C11.0925 34.0841 8.95146 33.0051 7.0957 31.5269C5.1315 29.9675 3.52722 28.0023 2.39258 25.7656Z" fill="#319F43"/>
</g>
<defs>
<clipPath id="clip0_172_2376">
<rect width="35" height="35" fill="white" transform="translate(0 0.5)"/>
</clipPath>
</defs>
</svg>
