<svg width="18" height="19" viewBox="0 0 18 19" fill="none" xmlns="http://www.w3.org/2000/svg">
<g clip-path="url(#clip0_162_1992)">
<path d="M9.00528 2.11579C11.4114 2.11579 11.6963 2.12635 12.6426 2.16856C13.522 2.20725 13.9969 2.355 14.3135 2.47812C14.7321 2.63993 15.0346 2.83692 15.3477 3.14999C15.6643 3.46658 15.8577 3.76559 16.0195 4.18419C16.1427 4.50078 16.2904 4.97919 16.3291 5.85509C16.3713 6.80487 16.3819 7.0898 16.3819 9.49238C16.3819 11.8985 16.3713 12.1834 16.3291 13.1297C16.2904 14.0091 16.1427 14.484 16.0195 14.8006C15.8577 15.2192 15.6607 15.5217 15.3477 15.8348C15.0311 16.1514 14.7321 16.3448 14.3135 16.5066C13.9969 16.6298 13.5185 16.7775 12.6426 16.8162C11.6928 16.8584 11.4079 16.869 9.00528 16.869C6.59918 16.869 6.31425 16.8584 5.36799 16.8162C4.48857 16.7775 4.01368 16.6298 3.69709 16.5066C3.27848 16.3448 2.97596 16.1478 2.66289 15.8348C2.3463 15.5182 2.15282 15.2192 1.99101 14.8006C1.86789 14.484 1.72015 14.0056 1.68145 13.1297C1.63924 12.1799 1.62869 11.895 1.62869 9.49238C1.62869 7.08628 1.63924 6.80135 1.68145 5.85509C1.72015 4.97567 1.86789 4.50078 1.99101 4.18419C2.15282 3.76559 2.34981 3.46307 2.66289 3.14999C2.97948 2.8334 3.27848 2.63993 3.69709 2.47812C4.01368 2.355 4.49209 2.20725 5.36799 2.16856C6.31425 2.12635 6.59918 2.11579 9.00528 2.11579ZM9.00528 0.494141C6.56048 0.494141 6.25445 0.504694 5.29412 0.546906C4.33731 0.589118 3.6795 0.743896 3.10963 0.96551C2.51515 1.19768 2.01212 1.50372 1.51261 2.00675C1.00958 2.50626 0.703537 3.00929 0.47137 3.60026C0.249756 4.17364 0.0949775 4.82793 0.0527653 5.78474C0.0105531 6.74859 0 7.05462 0 9.49942C0 11.9442 0.0105531 12.2502 0.0527653 13.2106C0.0949775 14.1674 0.249756 14.8252 0.47137 15.3951C0.703537 15.9895 1.00958 16.4926 1.51261 16.9921C2.01212 17.4916 2.51515 17.8012 3.10612 18.0298C3.6795 18.2514 4.33379 18.4062 5.2906 18.4484C6.25093 18.4906 6.55697 18.5012 9.00176 18.5012C11.4466 18.5012 11.7526 18.4906 12.7129 18.4484C13.6697 18.4062 14.3275 18.2514 14.8974 18.0298C15.4884 17.8012 15.9914 17.4916 16.4909 16.9921C16.9904 16.4926 17.3 15.9895 17.5286 15.3986C17.7502 14.8252 17.905 14.1709 17.9472 13.2141C17.9894 12.2538 18 11.9477 18 9.50293C18 7.05814 17.9894 6.7521 17.9472 5.79178C17.905 4.83496 17.7502 4.17716 17.5286 3.60729C17.307 3.00929 17.001 2.50626 16.4979 2.00675C15.9984 1.50723 15.4954 1.19768 14.9044 0.969028C14.3311 0.747414 13.6768 0.592636 12.72 0.550424C11.7561 0.504694 11.4501 0.494141 9.00528 0.494141Z" fill="#CDD5DF"/>
<path d="M9.00528 4.87366C6.45144 4.87366 4.37952 6.94558 4.37952 9.49942C4.37952 12.0533 6.45144 14.1252 9.00528 14.1252C11.5591 14.1252 13.631 12.0533 13.631 9.49942C13.631 6.94558 11.5591 4.87366 9.00528 4.87366ZM9.00528 12.5C7.34845 12.5 6.00469 11.1562 6.00469 9.49942C6.00469 7.84259 7.34845 6.49883 9.00528 6.49883C10.6621 6.49883 12.0059 7.84259 12.0059 9.49942C12.0059 11.1562 10.6621 12.5 9.00528 12.5Z" fill="#CDD5DF"/>
<path d="M14.8939 4.6907C14.8939 5.28871 14.4084 5.77064 13.814 5.77064C13.2159 5.77064 12.734 5.28519 12.734 4.6907C12.734 4.0927 13.2195 3.61077 13.814 3.61077C14.4084 3.61077 14.8939 4.09621 14.8939 4.6907Z" fill="#CDD5DF"/>
</g>
<defs>
<clipPath id="clip0_162_1992">
<rect width="18" height="18.007" fill="white" transform="translate(0 0.494141)"/>
</clipPath>
</defs>
</svg>
