<svg width="21" height="25" viewBox="0 0 21 25" fill="none" xmlns="http://www.w3.org/2000/svg">
<path d="M0 5C0 3.625 1.05 2.5 2.33333 2.5H18.6667C19.2855 2.5 19.879 2.76339 20.3166 3.23223C20.7542 3.70107 21 4.33696 21 5V22.5C21 23.163 20.7542 23.7989 20.3166 24.2678C19.879 24.7366 19.2855 25 18.6667 25H2.33333C1.71449 25 1.121 24.7366 0.683417 24.2678C0.245833 23.7989 0 23.163 0 22.5V5ZM2.33333 7.5V22.5H18.6667V7.5H2.33333ZM4.66667 0H7V2.5H4.66667V0ZM14 0H16.3333V2.5H14V0ZM4.66667 11.25H7V13.75H4.66667V11.25ZM4.66667 16.25H7V18.75H4.66667V16.25ZM9.33333 11.25H11.6667V13.75H9.33333V11.25ZM9.33333 16.25H11.6667V18.75H9.33333V16.25ZM14 11.25H16.3333V13.75H14V11.25ZM14 16.25H16.3333V18.75H14V16.25Z" fill="#9E9E9E"/>
</svg>
