<svg width="30" height="30" viewBox="0 0 30 30" fill="none" xmlns="http://www.w3.org/2000/svg">
<path d="M19.605 13.875L18.255 15.255C17.175 16.335 16.5 17.25 16.5 19.5H13.5V18.75C13.5 17.085 14.175 15.585 15.255 14.505L17.115 12.615C17.67 12.075 18 11.325 18 10.5C18 9.70435 17.6839 8.94129 17.1213 8.37868C16.5587 7.81607 15.7956 7.5 15 7.5C14.2044 7.5 13.4413 7.81607 12.8787 8.37868C12.3161 8.94129 12 9.70435 12 10.5H9C9 8.9087 9.63214 7.38258 10.7574 6.25736C11.8826 5.13214 13.4087 4.5 15 4.5C16.5913 4.5 18.1174 5.13214 19.2426 6.25736C20.3679 7.38258 21 8.9087 21 10.5C20.9978 11.7649 20.4965 12.9777 19.605 13.875ZM16.5 25.5H13.5V22.5H16.5M15 0C13.0302 0 11.0796 0.387987 9.25975 1.14181C7.43986 1.89563 5.78628 3.00052 4.3934 4.3934C1.58035 7.20644 0 11.0218 0 15C0 18.9782 1.58035 22.7936 4.3934 25.6066C5.78628 26.9995 7.43986 28.1044 9.25975 28.8582C11.0796 29.612 13.0302 30 15 30C18.9782 30 22.7936 28.4196 25.6066 25.6066C28.4196 22.7936 30 18.9782 30 15C30 6.705 23.25 0 15 0Z" fill="#383838"/>
</svg>
