<svg width="31" height="30" viewBox="0 0 31 30" fill="none" xmlns="http://www.w3.org/2000/svg">
<path d="M19.9383 13.875L18.5883 15.255C17.5083 16.335 16.8333 17.25 16.8333 19.5H13.8333V18.75C13.8333 17.085 14.5083 15.585 15.5883 14.505L17.4483 12.615C18.0033 12.075 18.3333 11.325 18.3333 10.5C18.3333 9.70435 18.0172 8.94129 17.4546 8.37868C16.892 7.81607 16.129 7.5 15.3333 7.5C14.5377 7.5 13.7746 7.81607 13.212 8.37868C12.6494 8.94129 12.3333 9.70435 12.3333 10.5H9.33331C9.33331 8.9087 9.96545 7.38258 11.0907 6.25736C12.2159 5.13214 13.742 4.5 15.3333 4.5C16.9246 4.5 18.4507 5.13214 19.576 6.25736C20.7012 7.38258 21.3333 8.9087 21.3333 10.5C21.3312 11.7649 20.8298 12.9777 19.9383 13.875ZM16.8333 25.5H13.8333V22.5H16.8333M15.3333 0C13.3635 0 11.4129 0.387987 9.59306 1.14181C7.77318 1.89563 6.11959 3.00052 4.72671 4.3934C1.91367 7.20644 0.333313 11.0218 0.333313 15C0.333313 18.9782 1.91367 22.7936 4.72671 25.6066C6.11959 26.9995 7.77318 28.1044 9.59306 28.8582C11.4129 29.612 13.3635 30 15.3333 30C19.3116 30 23.1269 28.4196 25.9399 25.6066C28.753 22.7936 30.3333 18.9782 30.3333 15C30.3333 6.705 23.5833 0 15.3333 0Z" fill="#0F6BE9"/>
</svg>
