<svg width="26" height="26" viewBox="0 0 26 26" fill="none" xmlns="http://www.w3.org/2000/svg">
<path fill-rule="evenodd" clip-rule="evenodd" d="M4.66667 1.19444C4.66667 1.01027 4.73983 0.833632 4.87006 0.703398C5.0003 0.573165 5.17693 0.5 5.36111 0.5H20.6389C20.8231 0.5 20.9997 0.573165 21.1299 0.703398C21.2602 0.833632 21.3333 1.01027 21.3333 1.19444V1.88889H24.8056C24.9897 1.88889 25.1664 1.96205 25.2966 2.09229C25.4268 2.22252 25.5 2.39916 25.5 2.58333V6.75C25.5 7.67089 25.1342 8.55406 24.483 9.20523C23.8318 9.8564 22.9487 10.2222 22.0278 10.2222H20.859C20.3625 11.6229 19.501 12.8656 18.3636 13.822C17.2261 14.7783 15.854 15.4137 14.3889 15.6625V19.9444H18.5556C18.7397 19.9444 18.9164 20.0176 19.0466 20.1478C19.1768 20.2781 19.25 20.4547 19.25 20.6389V24.8056C19.25 24.9897 19.1768 25.1664 19.0466 25.2966C18.9164 25.4268 18.7397 25.5 18.5556 25.5H7.44444C7.26027 25.5 7.08363 25.4268 6.9534 25.2966C6.82316 25.1664 6.75 24.9897 6.75 24.8056V20.6389C6.75 20.4547 6.82316 20.2781 6.9534 20.1478C7.08363 20.0176 7.26027 19.9444 7.44444 19.9444H11.6111V15.6625C10.146 15.4137 8.77388 14.7783 7.63645 13.822C6.49902 12.8656 5.63753 11.6229 5.14097 10.2222H3.97222C3.05133 10.2222 2.16816 9.8564 1.51699 9.20523C0.865822 8.55406 0.5 7.67089 0.5 6.75V2.58333C0.5 2.39916 0.573165 2.22252 0.703398 2.09229C0.833632 1.96205 1.01027 1.88889 1.19444 1.88889H4.66667V1.19444ZM21.3333 7.44444V3.27778H24.1111V6.75C24.1111 7.30253 23.8916 7.83244 23.5009 8.22314C23.1102 8.61384 22.5803 8.83333 22.0278 8.83333H21.3333V7.44444ZM4.66667 3.27778H1.88889V6.75C1.88889 7.30253 2.10838 7.83244 2.49908 8.22314C2.88978 8.61384 3.41969 8.83333 3.97222 8.83333H4.66667V3.27778Z" fill="#0F6BE9"/>
</svg>
