<svg width="19" height="18" viewBox="0 0 19 18" fill="none" xmlns="http://www.w3.org/2000/svg">
<path fill-rule="evenodd" clip-rule="evenodd" d="M7.25519 2.25248C6.0608 2.25248 4.91532 2.72693 4.07076 3.57145C3.2262 4.41597 2.75173 5.56139 2.75173 6.75573C2.75173 7.95006 3.2262 9.09548 4.07076 9.94C4.91532 10.7845 6.0608 11.259 7.25519 11.259C8.44958 11.259 9.59505 10.7845 10.4396 9.94C11.2842 9.09548 11.7586 7.95006 11.7586 6.75573C11.7586 5.56139 11.2842 4.41597 10.4396 3.57145C9.59505 2.72693 8.44958 2.25248 7.25519 2.25248ZM0.5 6.75573C0.499864 5.69263 0.750665 4.64451 1.23201 3.69661C1.71334 2.74871 2.41163 1.9278 3.27007 1.30064C4.12851 0.673482 5.12287 0.257786 6.17227 0.0873622C7.22167 -0.0830621 8.29648 -0.00340275 9.30929 0.319861C10.3221 0.643126 11.2443 1.20087 12.0009 1.94772C12.7575 2.69458 13.3271 3.60946 13.6634 4.61796C13.9998 5.62646 14.0933 6.7001 13.9364 7.75156C13.7796 8.80303 13.3767 9.80262 12.7607 10.669L18.184 16.0921C18.389 16.3044 18.5025 16.5888 18.5 16.884C18.4974 17.1792 18.379 17.4615 18.1702 17.6703C17.9615 17.879 17.6791 17.9974 17.3839 18C17.0887 18.0025 16.8043 17.889 16.592 17.684L11.1698 12.2621C10.1592 12.9806 8.97027 13.4072 7.73332 13.495C6.49636 13.5827 5.25911 13.3283 4.15715 12.7596C3.05518 12.191 2.13103 11.3299 1.48595 10.2709C0.840867 9.21188 0.499759 7.99573 0.5 6.75573Z" fill="#B3B3B3"/>
</svg>
