<svg width="11" height="21" viewBox="0 0 11 21" fill="none" xmlns="http://www.w3.org/2000/svg">
<path d="M10.8985 0.155819V3.48634H8.91755C8.65496 3.45278 8.38824 3.4761 8.13546 3.55473C7.88269 3.63335 7.64979 3.76543 7.45257 3.94202L7.45432 3.94027C7.17082 4.33798 7.03699 4.82309 7.07649 5.30991V5.30291V7.68711H10.7752L10.2854 11.4217H7.08174V20.9952H3.21857V11.4208H0V7.68711H3.21857V4.93645C3.17673 4.27209 3.27174 3.60622 3.4977 2.98007C3.72367 2.35393 4.07579 1.78084 4.53224 1.29631L4.52962 1.29894C4.99551 0.857482 5.54622 0.51527 6.14835 0.293062C6.75047 0.0708535 7.39147 -0.02672 8.03244 0.00626067H8.02107C9.01662 -0.0101615 10.0121 0.043908 11 0.168064L10.8977 0.157569L10.8985 0.155819Z" fill="#CDD5DF"/>
</svg>
