<svg width="30" height="30" viewBox="0 0 30 30" fill="none" xmlns="http://www.w3.org/2000/svg">
<path d="M11.9343 0.646949C10.3256 0.330782 8.66398 0.41497 7.09553 0.892101C5.52708 1.36923 4.09992 2.22468 2.93965 3.38316C1.70168 4.61597 0.809872 6.15296 0.353816 7.8397C-0.102239 9.52645 -0.106475 11.3035 0.341532 12.9924C0.790061 12.6052 1.32966 12.3384 1.90961 12.2171C2.48957 12.0957 3.09084 12.1239 3.65692 12.2989C4.223 12.4739 4.73531 12.79 5.14569 13.2175C5.55608 13.645 5.85106 14.1698 6.00293 14.7426C6.47619 14.6742 6.95846 14.7039 7.41977 14.8297C7.88109 14.9556 8.3116 15.175 8.68455 15.4744C9.0575 15.7737 9.36493 16.1466 9.58772 16.5698C9.81052 16.993 9.94392 17.4575 9.97965 17.9345C10.814 17.9922 11.5995 18.3494 12.1915 18.9402C12.7836 19.5311 13.1424 20.316 13.202 21.1504C13.8675 21.1972 14.5055 21.4345 15.0399 21.8339C15.5743 22.2333 15.9826 22.7781 16.2161 23.4032C16.4496 24.0283 16.4983 24.7074 16.3566 25.3595C16.2149 26.0116 15.8887 26.6091 15.4169 27.0809L14.8505 27.645L16.5159 29.2192C16.7383 29.4299 17.0341 29.5452 17.3403 29.5407C17.6465 29.5362 17.9388 29.4122 18.1548 29.1951C18.3551 28.9944 18.4764 28.7284 18.4968 28.4455C18.5172 28.1627 18.4351 27.882 18.2657 27.6547L18.1741 27.5631L18.0608 27.4329L17.8174 27.187C17.7048 27.075 17.6155 26.9418 17.5545 26.7951C17.4935 26.6485 17.4622 26.4912 17.4622 26.3324C17.4622 26.1735 17.4935 26.0163 17.5545 25.8696C17.6155 25.7229 17.7048 25.5898 17.8174 25.4778C18.0432 25.2532 18.3486 25.1272 18.667 25.1272C18.9853 25.1272 19.2908 25.2532 19.5165 25.4778L19.854 25.8153C19.9263 25.8876 19.9937 25.9615 20.0564 26.037L20.2372 26.2203C20.3426 26.3274 20.4683 26.4125 20.6069 26.4706C20.7455 26.5287 20.8943 26.5586 21.0446 26.5586C21.1948 26.5586 21.3436 26.5287 21.4822 26.4706C21.6209 26.4125 21.7465 26.3274 21.852 26.2203C22.0664 26.0048 22.1868 25.7131 22.1868 25.409C22.1868 25.105 22.0664 24.8133 21.852 24.5978L21.4904 24.2362C21.3748 24.1204 21.2839 23.9822 21.2235 23.8301C21.163 23.678 21.1341 23.5151 21.1386 23.3515C21.1381 23.1133 21.2082 22.8804 21.34 22.6821C21.4718 22.4837 21.6593 22.3289 21.879 22.2371C22.0987 22.1453 22.3406 22.1206 22.5743 22.1662C22.808 22.2118 23.0229 22.3256 23.192 22.4932L23.4643 22.7681C23.5817 22.8861 23.7212 22.9797 23.8749 23.0436C24.0285 23.1075 24.1933 23.1404 24.3597 23.1404C24.5261 23.1404 24.6909 23.1075 24.8445 23.0436C24.9982 22.9797 25.1377 22.8861 25.2551 22.7681C25.4913 22.5289 25.6238 22.2063 25.6238 21.8701C25.6238 21.5339 25.4913 21.2112 25.2551 20.972L25.1948 20.9094L24.9755 20.7045L23.1076 18.8289C22.9954 18.7169 22.9064 18.5839 22.8456 18.4375C22.7849 18.291 22.7536 18.134 22.7536 17.9755C22.7536 17.8169 22.7849 17.6599 22.8456 17.5135C22.9064 17.3671 22.9954 17.234 23.1076 17.1221C23.3335 16.8968 23.6395 16.7704 23.9584 16.7704C24.2774 16.7704 24.5833 16.8968 24.8092 17.1221L26.5638 18.8819L26.6819 18.988L26.8265 19.1326C27.1999 19.4369 27.673 19.5916 28.1539 19.5666C28.6349 19.5417 29.0895 19.3389 29.4294 18.9976C29.7948 18.6303 30 18.1332 30 17.6151C30 17.0969 29.7948 16.5998 29.4294 16.2325L27.6507 14.4461L27.5808 14.381L20.3697 7.04751H18.5236L14.3974 10.1863C12.4018 11.7051 9.55305 11.3194 8.03226 9.32327C7.66982 8.84932 7.40452 8.30845 7.25157 7.73169C7.09862 7.15493 7.06103 6.55364 7.14098 5.96232C7.22092 5.371 7.41681 4.80128 7.71741 4.28587C8.01801 3.77046 8.41741 3.3195 8.89268 2.95887L11.9343 0.646949ZM20.8759 4.63675C21.0357 4.6371 21.1939 4.66924 21.3412 4.73133C21.4885 4.79341 21.622 4.88418 21.7339 4.99837L28.2316 11.6038C28.6945 10.6881 28.9673 9.68816 29.0335 8.66416C29.0997 7.64017 28.958 6.61337 28.6168 5.64565C28.2756 4.67793 27.7421 3.78933 27.0483 3.03341C26.3546 2.27748 25.515 1.66988 24.5802 1.24723L24.4959 1.20383C23.7119 0.771884 22.8314 0.545472 21.9363 0.545697H16.0315L15.9134 0.646949L10.3532 4.87783C10.1298 5.04652 9.942 5.25777 9.80061 5.49942C9.65922 5.74106 9.56705 6.0083 9.52941 6.28575C9.49177 6.56319 9.5094 6.84534 9.5813 7.11593C9.6532 7.38652 9.77793 7.6402 9.94832 7.86235C10.2914 8.31253 10.7992 8.60805 11.36 8.68399C11.9208 8.75993 12.4889 8.61008 12.9393 8.26735L17.3884 4.88265C17.5977 4.72345 17.8533 4.63709 18.1162 4.63675H20.8759ZM10.4858 22.1605L8.90232 23.7396C8.7008 23.9407 8.42778 24.0536 8.14313 24.0536C7.85848 24.0536 7.58545 23.9407 7.38394 23.7396C7.18741 23.5442 7.07451 23.28 7.06912 23.0029C7.06372 22.7258 7.16624 22.4575 7.35501 22.2546L7.38635 22.2232L8.96739 20.6442L8.99631 20.6177C9.2002 20.4293 9.46889 20.327 9.74637 20.3319C10.0238 20.3369 10.2887 20.4487 10.4858 20.6442C10.5858 20.7435 10.6652 20.8616 10.7194 20.9917C10.7736 21.1218 10.8015 21.2614 10.8015 21.4024C10.8015 21.5433 10.7736 21.6829 10.7194 21.813C10.6652 21.9432 10.5858 22.0613 10.4858 22.1605ZM10.6087 26.9555C10.8102 27.1566 11.0832 27.2696 11.3679 27.2696C11.6525 27.2696 11.9256 27.1566 12.1271 26.9555L13.7105 25.3765C13.8233 25.2643 13.9096 25.1284 13.9632 24.9785C14.0167 24.8287 14.0361 24.6688 14.0199 24.5106C14.0037 24.3523 13.9524 24.1996 13.8697 24.0637C13.787 23.9279 13.675 23.8122 13.5418 23.7251C13.3353 23.5894 13.0884 23.5289 12.8426 23.554C12.5968 23.579 12.3671 23.688 12.1921 23.8625L10.6087 25.4416C10.509 25.5408 10.4299 25.6588 10.3759 25.7887C10.3219 25.9186 10.2942 26.0579 10.2942 26.1986C10.2942 26.3392 10.3219 26.4785 10.3759 26.6084C10.4299 26.7383 10.509 26.8563 10.6087 26.9555ZM3.41445 16.3554L1.8334 17.9345C1.63189 18.1356 1.35886 18.2485 1.07421 18.2485C0.789562 18.2485 0.516534 18.1356 0.315021 17.9345C0.118491 17.7391 0.00559966 17.4749 0.000202763 17.1978C-0.00519414 16.9207 0.0973258 16.6524 0.286099 16.4495L0.317431 16.4181L1.89848 14.8391L1.9274 14.8126C2.1312 14.6247 2.39965 14.5228 2.67673 14.5282C2.95382 14.5336 3.21811 14.6459 3.41445 14.8415C3.51414 14.9407 3.59324 15.0587 3.64722 15.1886C3.7012 15.3185 3.72898 15.4578 3.72898 15.5985C3.72898 15.7391 3.7012 15.8784 3.64722 16.0083C3.59324 16.1383 3.51414 16.2562 3.41445 16.3554ZM6.97421 19.0386L5.39317 20.6153C5.19165 20.8163 4.91863 20.9293 4.63398 20.9293C4.34933 20.9293 4.0763 20.8163 3.87478 20.6153C3.67897 20.42 3.56653 20.1563 3.56113 19.8798C3.55574 19.6033 3.65781 19.3354 3.84586 19.1326L3.87719 19.1013L5.45824 17.5223L5.48716 17.4933C5.69096 17.3055 5.95942 17.2036 6.2365 17.209C6.51358 17.2144 6.77787 17.3266 6.97421 17.5223C7.07426 17.6215 7.15368 17.7396 7.20787 17.8698C7.26206 17.9999 7.28996 18.1395 7.28996 18.2804C7.28996 18.4214 7.26206 18.561 7.20787 18.6911C7.15368 18.8212 7.07426 18.9393 6.97421 19.0386Z" fill="#383838"/>
</svg>
