<svg width="31" height="30" viewBox="0 0 31 30" fill="none" xmlns="http://www.w3.org/2000/svg">
<path d="M15.3333 0C16.6773 0 17.9793 0.177 19.2183 0.5085L16.0293 3.696C15.7874 3.9389 15.574 4.20865 15.3933 4.5H15.3333C13.2566 4.5 11.2265 5.11581 9.49983 6.26957C7.77311 7.42332 6.4273 9.0632 5.63258 10.9818C4.83786 12.9004 4.62992 15.0116 5.03507 17.0484C5.44021 19.0852 6.44024 20.9562 7.90869 22.4246C9.37714 23.8931 11.2481 24.8931 13.2849 25.2982C15.3217 25.7034 17.4329 25.4955 19.3515 24.7007C21.2701 23.906 22.91 22.5602 24.0637 20.8335C25.2175 19.1068 25.8333 17.0767 25.8333 15V14.94C26.1233 14.76 26.3908 14.5475 26.6358 14.3025L29.8248 11.115C30.1563 12.354 30.3333 13.656 30.3333 15C30.3333 23.2845 23.6178 30 15.3333 30C7.04881 30 0.333313 23.2845 0.333313 15C0.333313 6.7155 7.04881 0 15.3333 0ZM14.7123 7.5255C14.7123 8.802 14.6493 10.0965 14.7183 11.3715L13.9083 12.1815C13.6297 12.4601 13.4087 12.7909 13.2579 13.155C13.1071 13.519 13.0295 13.9092 13.0295 14.3032C13.0295 14.6973 13.1071 15.0875 13.2579 15.4515C13.4087 15.8156 13.6297 16.1464 13.9083 16.425C14.1869 16.7036 14.5177 16.9247 14.8818 17.0755C15.2458 17.2262 15.636 17.3039 16.0301 17.3039C16.4241 17.3039 16.8143 17.2262 17.1783 17.0755C17.5424 16.9247 17.8732 16.7036 18.1518 16.425L18.9618 15.615C20.2368 15.684 21.5298 15.621 22.8078 15.621C22.6893 17.0465 22.1656 18.4084 21.2986 19.5461C20.4315 20.6837 19.2571 21.5497 17.914 22.0418C16.5709 22.534 15.1151 22.6318 13.7182 22.3237C12.3214 22.0156 11.0418 21.3145 10.0303 20.303C9.01882 19.2916 8.3177 18.0119 8.00961 16.6151C7.70153 15.2182 7.79932 13.7624 8.29147 12.4193C8.78362 11.0762 9.64959 9.90186 10.7872 9.03476C11.9249 8.16767 13.2868 7.64399 14.7123 7.5255ZM25.0893 0.1905C25.3631 0.304019 25.5971 0.496106 25.7618 0.742514C25.9266 0.988923 26.0146 1.27861 26.0148 1.575V4.32H28.7583C29.0549 4.32006 29.3449 4.40807 29.5915 4.5729C29.8381 4.73772 30.0303 4.97197 30.1438 5.24602C30.2573 5.52007 30.287 5.82162 30.2292 6.11255C30.1713 6.40348 30.0285 6.67072 29.8188 6.8805L24.5133 12.18C24.2321 12.4613 23.8506 12.6194 23.4528 12.6195H19.8333L17.0913 15.363C16.8099 15.6445 16.4281 15.8026 16.0301 15.8026C15.632 15.8026 15.2503 15.6445 14.9688 15.363C14.6874 15.0815 14.5292 14.6998 14.5292 14.3018C14.5292 13.9037 14.6874 13.522 14.9688 13.2405L17.7123 10.5V6.879C17.7122 6.68178 17.7509 6.48647 17.8263 6.30424C17.9017 6.122 18.0123 5.95643 18.1518 5.817L23.4543 0.5145C23.6641 0.304601 23.9314 0.161638 24.2224 0.103697C24.5135 0.0457566 24.8152 0.0754427 25.0893 0.189" fill="#0F6BE9"/>
</svg>
