<svg width="10" height="9" viewBox="0 0 10 9" fill="none" xmlns="http://www.w3.org/2000/svg">
<path d="M0.00725651 7.57309C-0.0435781 7.86447 0.180514 8.12137 0.434685 8.06309L3.51573 7.35667C3.80022 7.29144 3.90649 6.88905 3.70134 6.65387L2.78848 5.60736L4.76066 3.34644L6.32578 5.1407C6.41567 5.24374 6.53757 5.30163 6.66469 5.30163C6.7918 5.30163 6.91371 5.24374 7.00359 5.1407L9.85962 1.86653C10.0468 1.65195 10.0468 1.30406 9.85962 1.08948C9.67245 0.87491 9.36899 0.87491 9.18182 1.08948L6.66469 3.97514L5.09957 2.18088C4.91239 1.9663 4.60893 1.9663 4.42176 2.18088L2.11068 4.83032L1.23651 3.82817C1.03136 3.59298 0.680362 3.71482 0.623465 4.04096L0.00725651 7.57309Z" fill="#EA5959"/>
</svg>
